<svg xmlns="http://www.w3.org/2000/svg" width="35" height="35" viewBox="0 0 35 35"><path d="M35.563,18.063a17.5,17.5,0,1,1-17.5-17.5A17.5,17.5,0,0,1,35.563,18.063ZM18.532,6.349a9.14,9.14,0,0,0-8.224,4.5A.848.848,0,0,0,10.5,12l2.449,1.857a.847.847,0,0,0,1.176-.15c1.261-1.6,2.125-2.526,4.044-2.526,1.442,0,3.225.928,3.225,2.326,0,1.057-.872,1.6-2.3,2.4-1.66.931-3.856,2.089-3.856,4.986v.282a.847.847,0,0,0,.847.847h3.952a.847.847,0,0,0,.847-.847v-.094c0-2.008,5.87-2.092,5.87-7.527C26.755,9.453,22.51,6.349,18.532,6.349Zm-.47,17.5a3.246,3.246,0,1,0,3.246,3.246A3.25,3.25,0,0,0,18.063,23.849Z" transform="translate(-0.563 -0.563)"/></svg>