<svg xmlns="http://www.w3.org/2000/svg" width="25" height="25" viewBox="0 0 25 25"><path d="M12.5.563A12.5,12.5,0,1,0,25,13.063,12.5,12.5,0,0,0,12.5.563Zm-.572,12.108a.806.806,0,0,1-.692.392h-.016a.807.807,0,0,0-.57.236l-.285.285a.4.4,0,0,0,0,.57l.285.285a.807.807,0,0,1,.236.57v.472a.806.806,0,0,1-.806.806H9.773a.806.806,0,0,1-.721-.446l-1.14-2.28a.4.4,0,0,0-.646-.1l-.981.981a.807.807,0,0,1-.57.236H2.561a10.062,10.062,0,0,1,13.045-11.2L13.078,5.419a.4.4,0,0,0,.043.7l.546.273a.806.806,0,0,1,.446.721v3.937a.4.4,0,0,1-.4.4h-.154a.4.4,0,0,1-.36-.223.223.223,0,0,0-.391-.015l-.876,1.459Zm8.636,5.554a.807.807,0,0,1-.236.57l-.482.482a.807.807,0,0,1-.57.236h-.764a.807.807,0,0,1-.57-.236l-.656-.656A1.349,1.349,0,0,0,16,18.267l-1.072.268a.8.8,0,0,1-.2.024h-.521a.807.807,0,0,1-.57-.236l-.6-.6a.4.4,0,0,1-.118-.285v-.514a.4.4,0,0,1,.254-.374l1.983-.793a1.351,1.351,0,0,0,.282-.154l1.2-.851a.4.4,0,0,1,.234-.075h.609a.4.4,0,0,1,.372.248l.27.648a.2.2,0,0,0,.186.124H18.5a.2.2,0,0,0,.194-.145l.212-.729a.2.2,0,0,1,.194-.145h.305a.2.2,0,0,1,.2.2v.652a.4.4,0,0,0,.118.285l.6.6a.807.807,0,0,1,.236.57v1.24Z" transform="translate(0 -0.563)" fill="#ce997c"/></svg>