<svg xmlns="http://www.w3.org/2000/svg" width="42" height="34.993" viewBox="0 0 42 34.993"><path d="M20.442,11.332,7,23.194V36a1.21,1.21,0,0,0,1.167,1.25l8.17-.023a1.211,1.211,0,0,0,1.161-1.25V28.5a1.21,1.21,0,0,1,1.167-1.25H23.33A1.21,1.21,0,0,1,24.5,28.5v7.471a1.3,1.3,0,0,0,.34.886,1.129,1.129,0,0,0,.826.367l8.167.024A1.21,1.21,0,0,0,35,36V23.185L21.558,11.332A.843.843,0,0,0,20.442,11.332Zm21.234,8.063-6.1-5.383V3.191a.908.908,0,0,0-.875-.937H30.623a.908.908,0,0,0-.875.937V8.863L23.22,3.109a3.321,3.321,0,0,0-4.448,0L.316,19.394A.984.984,0,0,0,.2,20.715l1.859,2.422a.859.859,0,0,0,.592.338.836.836,0,0,0,.641-.21L20.442,8.129a.843.843,0,0,1,1.116,0L38.708,23.264a.836.836,0,0,0,1.232-.125L41.8,20.717a.984.984,0,0,0,.195-.689.958.958,0,0,0-.319-.634Z" transform="translate(0.001 -2.254)"/></svg>