<svg xmlns="http://www.w3.org/2000/svg" width="25" height="25" viewBox="0 0 25 25"><path d="M12.5,8.328a6.41,6.41,0,1,0,6.408,6.41A6.4,6.4,0,0,0,12.5,8.328Zm0,10.577a4.167,4.167,0,1,1,4.166-4.167A4.174,4.174,0,0,1,12.5,18.9ZM20.663,8.066a1.495,1.495,0,1,1-1.495-1.5A1.491,1.491,0,0,1,20.663,8.066Zm4.244,1.517a7.4,7.4,0,0,0-2.019-5.238,7.445,7.445,0,0,0-5.237-2.019c-2.064-.117-8.249-.117-10.312,0A7.434,7.434,0,0,0,2.1,4.339,7.424,7.424,0,0,0,.083,9.578c-.117,2.064-.117,8.251,0,10.315A7.4,7.4,0,0,0,2.1,25.13,7.454,7.454,0,0,0,7.339,27.15c2.064.117,8.249.117,10.312,0a7.4,7.4,0,0,0,5.237-2.019,7.448,7.448,0,0,0,2.019-5.238c.117-2.064.117-8.245,0-10.309ZM22.241,22.107a4.218,4.218,0,0,1-2.376,2.376c-1.645.653-5.549.5-7.368.5s-5.728.145-7.368-.5a4.218,4.218,0,0,1-2.376-2.376c-.653-1.646-.5-5.551-.5-7.369s-.145-5.729.5-7.369A4.218,4.218,0,0,1,5.13,4.992c1.645-.653,5.549-.5,7.368-.5s5.728-.145,7.368.5a4.218,4.218,0,0,1,2.376,2.376c.653,1.646.5,5.551.5,7.369S22.893,20.467,22.241,22.107Z" transform="translate(0.005 -2.238)" fill="#ce997c"/></svg>