<svg xmlns="http://www.w3.org/2000/svg" width="19.373" height="15.75" viewBox="0 0 19.373 15.75"><g transform="translate(-4.5 -10.125)"><path d="M23.065,12.375H5.307c-.444,0-.807-.506-.807-1.125h0c0-.619.363-1.125.807-1.125H23.065c.444,0,.807.506.807,1.125h0C23.873,11.869,23.509,12.375,23.065,12.375Z"/><path d="M23.065,19.125H5.307c-.444,0-.807-.506-.807-1.125h0c0-.619.363-1.125.807-1.125H23.065c.444,0,.807.506.807,1.125h0C23.873,18.619,23.509,19.125,23.065,19.125Z"/><path d="M23.065,25.875H5.307c-.444,0-.807-.506-.807-1.125h0c0-.619.363-1.125.807-1.125H23.065c.444,0,.807.506.807,1.125h0C23.873,25.369,23.509,25.875,23.065,25.875Z"/></g></svg>