<svg xmlns="http://www.w3.org/2000/svg" width="35" height="35" viewBox="0 0 35 35"><path d="M14.075,16.112,15.613,4.627h-8L4.271,14.471a3.846,3.846,0,0,0-.157,1.094c0,2.415,2.236,4.375,5,4.375a4.825,4.825,0,0,0,4.962-3.828Zm7.539,3.828c2.761,0,5-1.96,5-4.375,0-.09-.006-.179-.01-.265l-.99-10.673h-8l-.992,10.664c0,.09-.008.179-.008.273,0,2.415,2.238,4.375,5,4.375Zm9.722,2.288v8.649H11.891V22.241a7.372,7.372,0,0,1-2.779.543A7.149,7.149,0,0,1,8,22.676V36.565a2.914,2.914,0,0,0,2.718,3.063H32.5a2.917,2.917,0,0,0,2.722-3.062V22.679a7.45,7.45,0,0,1-1.11.107A7.286,7.286,0,0,1,31.335,22.228Zm7.622-7.757L35.611,4.627h-8L29.15,16.094a4.817,4.817,0,0,0,4.964,3.846c2.761,0,5-1.96,5-4.375A3.916,3.916,0,0,0,38.958,14.471Z" transform="translate(-4.113 -4.627)"/></svg>