<svg xmlns="http://www.w3.org/2000/svg" width="25" height="25" viewBox="0 0 25 25"><path d="M22.321,2.25H2.679A2.679,2.679,0,0,0,0,4.929V24.571A2.679,2.679,0,0,0,2.679,27.25H22.321A2.679,2.679,0,0,0,25,24.571V4.929A2.679,2.679,0,0,0,22.321,2.25ZM17.729,22.574a4.981,4.981,0,0,1-3.4,1.1c-4.213,0-5.128-3.1-5.128-4.905V13.751H7.545a.348.348,0,0,1-.346-.346V11.033a.588.588,0,0,1,.4-.558,4.44,4.44,0,0,0,2.941-4.085c.028-.385.229-.569.558-.569h2.472a.348.348,0,0,1,.346.346v4.018h2.9a.348.348,0,0,1,.346.346v2.852a.348.348,0,0,1-.346.346H13.9v4.648c0,1.194.826,1.869,2.372,1.25a.747.747,0,0,1,.446-.078.366.366,0,0,1,.257.273l.77,2.243C17.8,22.244,17.857,22.44,17.729,22.574Z" transform="translate(0 -2.25)" fill="#ce997c"/></svg>